{
    "asset" : {
        "generator" : "Khronos glTF Blender I/O v3.2.40",
        "version" : "2.0"
    },
    "scene" : 0,
    "scenes" : [
        {
            "name" : "Scene",
            "nodes" : [
                1,
                2,
                3,
                4,
                5,
                6,
                7,
                8,
                9,
                10,
                11
            ]
        }
    ],
    "nodes" : [
        {
            "mesh" : 0,
            "name" : "Icosphere.001",
            "scale" : [
                1.006658911705017,
                1.006658911705017,
                1.006658911705017
            ]
        },
        {
            "children" : [
                0
            ],
            "mesh" : 1,
            "name" : "Icosphere",
            "rotation" : [
                0,
                0.13052618503570557,
                0,
                0.9914448857307434
            ],
            "scale" : [
                0.42084529995918274,
                0.420845091342926,
                0.42084529995918274
            ]
        },
        {
            "mesh" : 2,
            "name" : "Cube.002",
            "scale" : [
                -0.033785682171583176,
                -0.033785682171583176,
                -0.033785682171583176
            ],
            "translation" : [
                0.461172878742218,
                0.461172878742218,
                -0.461172878742218
            ]
        },
        {
            "mesh" : 3,
            "name" : "Cube.004",
            "scale" : [
                -0.033785682171583176,
                -0.033785682171583176,
                -0.033785682171583176
            ],
            "translation" : [
                0.461172878742218,
                0.461172878742218,
                -0.461172878742218
            ]
        },
        {
            "mesh" : 4,
            "name" : "Cube.001",
            "rotation" : [
                0,
                0,
                -1,
                0
            ],
            "scale" : [
                0.033785682171583176,
                0.033785682171583176,
                0.033785682171583176
            ],
            "translation" : [
                0.461172878742218,
                0.461172878742218,
                0.461172878742218
            ]
        },
        {
            "mesh" : 5,
            "name" : "Cube.003",
            "rotation" : [
                0,
                1,
                0,
                0
            ],
            "scale" : [
                0.033785682171583176,
                0.033785682171583176,
                0.033785682171583176
            ],
            "translation" : [
                0.461172878742218,
                -0.461172878742218,
                -0.461172878742218
            ]
        },
        {
            "mesh" : 6,
            "name" : "Cube.005",
            "rotation" : [
                1,
                0,
                0,
                0
            ],
            "scale" : [
                -0.033785682171583176,
                -0.033785682171583176,
                -0.033785682171583176
            ],
            "translation" : [
                0.461172878742218,
                -0.461172878742218,
                0.461172878742218
            ]
        },
        {
            "mesh" : 7,
            "name" : "Cube.006",
            "rotation" : [
                1,
                0,
                0,
                0
            ],
            "scale" : [
                0.033785682171583176,
                0.033785682171583176,
                0.033785682171583176
            ],
            "translation" : [
                -0.461172878742218,
                0.461172878742218,
                -0.461172878742218
            ]
        },
        {
            "mesh" : 8,
            "name" : "Cube.007",
            "rotation" : [
                1,
                0,
                0,
                0
            ],
            "scale" : [
                0.033785682171583176,
                0.033785682171583176,
                0.033785682171583176
            ],
            "translation" : [
                -0.461172878742218,
                0.461172878742218,
                -0.461172878742218
            ]
        },
        {
            "mesh" : 9,
            "name" : "Cube.008",
            "rotation" : [
                0,
                1,
                0,
                0
            ],
            "scale" : [
                -0.033785682171583176,
                -0.033785682171583176,
                -0.033785682171583176
            ],
            "translation" : [
                -0.461172878742218,
                0.461172878742218,
                0.461172878742218
            ]
        },
        {
            "mesh" : 10,
            "name" : "Cube.009",
            "rotation" : [
                0,
                0,
                -1,
                0
            ],
            "scale" : [
                -0.033785682171583176,
                -0.033785682171583176,
                -0.033785682171583176
            ],
            "translation" : [
                -0.461172878742218,
                -0.461172878742218,
                -0.461172878742218
            ]
        },
        {
            "mesh" : 11,
            "name" : "Cube.010",
            "scale" : [
                0.033785682171583176,
                0.033785682171583176,
                0.033785682171583176
            ],
            "translation" : [
                -0.461172878742218,
                -0.461172878742218,
                0.461172878742218
            ]
        }
    ],
    "materials" : [
        {
            "doubleSided" : true,
            "name" : "Blue.001",
            "pbrMetallicRoughness" : {
                "baseColorFactor" : [
                    0.010437632910907269,
                    0.02413245290517807,
                    0.0451839454472065,
                    1
                ],
                "metallicFactor" : 0,
                "roughnessFactor" : 0.5
            }
        },
        {
            "doubleSided" : true,
            "name" : "Purple",
            "pbrMetallicRoughness" : {
                "metallicFactor" : 0,
                "roughnessFactor" : 0.5
            }
        },
        {
            "doubleSided" : true,
            "name" : "Blue",
            "pbrMetallicRoughness" : {
                "baseColorFactor" : [
                    0.13003438711166382,
                    0.3791295886039734,
                    0.8000000715255737,
                    1
                ],
                "metallicFactor" : 0,
                "roughnessFactor" : 0.5
            }
        }
    ],
    "meshes" : [
        {
            "name" : "Icosphere.001",
            "primitives" : [
                {
                    "attributes" : {
                        "POSITION" : 0,
                        "NORMAL" : 1,
                        "TEXCOORD_0" : 2
                    },
                    "indices" : 3,
                    "material" : 0
                }
            ]
        },
        {
            "name" : "Icosphere",
            "primitives" : [
                {
                    "attributes" : {
                        "POSITION" : 4,
                        "NORMAL" : 5,
                        "TEXCOORD_0" : 6
                    },
                    "indices" : 7,
                    "material" : 1
                }
            ]
        },
        {
            "name" : "Cube.009",
            "primitives" : [
                {
                    "attributes" : {
                        "POSITION" : 8,
                        "NORMAL" : 9,
                        "TEXCOORD_0" : 10
                    },
                    "indices" : 11,
                    "material" : 2
                }
            ]
        },
        {
            "name" : "Cube.011",
            "primitives" : [
                {
                    "attributes" : {
                        "POSITION" : 12,
                        "NORMAL" : 13,
                        "TEXCOORD_0" : 14
                    },
                    "indices" : 15,
                    "material" : 2
                }
            ]
        },
        {
            "name" : "Cube.012",
            "primitives" : [
                {
                    "attributes" : {
                        "POSITION" : 16,
                        "NORMAL" : 17,
                        "TEXCOORD_0" : 18
                    },
                    "indices" : 15,
                    "material" : 2
                }
            ]
        },
        {
            "name" : "Cube.013",
            "primitives" : [
                {
                    "attributes" : {
                        "POSITION" : 19,
                        "NORMAL" : 20,
                        "TEXCOORD_0" : 21
                    },
                    "indices" : 15,
                    "material" : 2
                }
            ]
        },
        {
            "name" : "Cube.014",
            "primitives" : [
                {
                    "attributes" : {
                        "POSITION" : 22,
                        "NORMAL" : 23,
                        "TEXCOORD_0" : 24
                    },
                    "indices" : 15,
                    "material" : 2
                }
            ]
        },
        {
            "name" : "Cube.015",
            "primitives" : [
                {
                    "attributes" : {
                        "POSITION" : 25,
                        "NORMAL" : 26,
                        "TEXCOORD_0" : 27
                    },
                    "indices" : 11,
                    "material" : 2
                }
            ]
        },
        {
            "name" : "Cube.016",
            "primitives" : [
                {
                    "attributes" : {
                        "POSITION" : 28,
                        "NORMAL" : 29,
                        "TEXCOORD_0" : 30
                    },
                    "indices" : 15,
                    "material" : 2
                }
            ]
        },
        {
            "name" : "Cube.017",
            "primitives" : [
                {
                    "attributes" : {
                        "POSITION" : 31,
                        "NORMAL" : 32,
                        "TEXCOORD_0" : 33
                    },
                    "indices" : 15,
                    "material" : 2
                }
            ]
        },
        {
            "name" : "Cube.018",
            "primitives" : [
                {
                    "attributes" : {
                        "POSITION" : 34,
                        "NORMAL" : 35,
                        "TEXCOORD_0" : 36
                    },
                    "indices" : 15,
                    "material" : 2
                }
            ]
        },
        {
            "name" : "Cube.019",
            "primitives" : [
                {
                    "attributes" : {
                        "POSITION" : 37,
                        "NORMAL" : 38,
                        "TEXCOORD_0" : 39
                    },
                    "indices" : 15,
                    "material" : 2
                }
            ]
        }
    ],
    "accessors" : [
        {
            "bufferView" : 0,
            "componentType" : 5126,
            "count" : 12000,
            "max" : [
                0.9209185838699341,
                1.0260472297668457,
                0.877906322479248
            ],
            "min" : [
                -0.9209185838699341,
                -1.0260472297668457,
                -0.877906322479248
            ],
            "type" : "VEC3"
        },
        {
            "bufferView" : 1,
            "componentType" : 5126,
            "count" : 12000,
            "type" : "VEC3"
        },
        {
            "bufferView" : 2,
            "componentType" : 5126,
            "count" : 12000,
            "type" : "VEC2"
        },
        {
            "bufferView" : 3,
            "componentType" : 5123,
            "count" : 18000,
            "type" : "SCALAR"
        },
        {
            "bufferView" : 4,
            "componentType" : 5126,
            "count" : 60,
            "max" : [
                0.8944249749183655,
                1,
                0.8506399989128113
            ],
            "min" : [
                -0.8944249749183655,
                -1,
                -0.8506399989128113
            ],
            "type" : "VEC3"
        },
        {
            "bufferView" : 5,
            "componentType" : 5126,
            "count" : 60,
            "type" : "VEC3"
        },
        {
            "bufferView" : 6,
            "componentType" : 5126,
            "count" : 60,
            "type" : "VEC2"
        },
        {
            "bufferView" : 7,
            "componentType" : 5123,
            "count" : 60,
            "type" : "SCALAR"
        },
        {
            "bufferView" : 8,
            "componentType" : 5126,
            "count" : 384,
            "max" : [
                1,
                1,
                1
            ],
            "min" : [
                -1,
                -1,
                -1
            ],
            "type" : "VEC3"
        },
        {
            "bufferView" : 9,
            "componentType" : 5126,
            "count" : 384,
            "type" : "VEC3"
        },
        {
            "bufferView" : 10,
            "componentType" : 5126,
            "count" : 384,
            "type" : "VEC2"
        },
        {
            "bufferView" : 11,
            "componentType" : 5123,
            "count" : 564,
            "type" : "SCALAR"
        },
        {
            "bufferView" : 12,
            "componentType" : 5126,
            "count" : 918,
            "max" : [
                7.824974536895752,
                7.824974536895752,
                1
            ],
            "min" : [
                -1,
                -1,
                -7.824974536895752
            ],
            "type" : "VEC3"
        },
        {
            "bufferView" : 13,
            "componentType" : 5126,
            "count" : 918,
            "type" : "VEC3"
        },
        {
            "bufferView" : 14,
            "componentType" : 5126,
            "count" : 918,
            "type" : "VEC2"
        },
        {
            "bufferView" : 15,
            "componentType" : 5123,
            "count" : 1356,
            "type" : "SCALAR"
        },
        {
            "bufferView" : 16,
            "componentType" : 5126,
            "count" : 918,
            "max" : [
                7.824974536895752,
                7.824974536895752,
                1
            ],
            "min" : [
                -1,
                -1,
                -7.824974536895752
            ],
            "type" : "VEC3"
        },
        {
            "bufferView" : 17,
            "componentType" : 5126,
            "count" : 918,
            "type" : "VEC3"
        },
        {
            "bufferView" : 18,
            "componentType" : 5126,
            "count" : 918,
            "type" : "VEC2"
        },
        {
            "bufferView" : 19,
            "componentType" : 5126,
            "count" : 918,
            "max" : [
                7.824974536895752,
                7.824974536895752,
                1
            ],
            "min" : [
                -1,
                -1,
                -7.824974536895752
            ],
            "type" : "VEC3"
        },
        {
            "bufferView" : 20,
            "componentType" : 5126,
            "count" : 918,
            "type" : "VEC3"
        },
        {
            "bufferView" : 21,
            "componentType" : 5126,
            "count" : 918,
            "type" : "VEC2"
        },
        {
            "bufferView" : 22,
            "componentType" : 5126,
            "count" : 918,
            "max" : [
                7.824974536895752,
                7.824974536895752,
                1
            ],
            "min" : [
                -1,
                -1,
                -7.824974536895752
            ],
            "type" : "VEC3"
        },
        {
            "bufferView" : 23,
            "componentType" : 5126,
            "count" : 918,
            "type" : "VEC3"
        },
        {
            "bufferView" : 24,
            "componentType" : 5126,
            "count" : 918,
            "type" : "VEC2"
        },
        {
            "bufferView" : 25,
            "componentType" : 5126,
            "count" : 384,
            "max" : [
                1,
                1,
                1
            ],
            "min" : [
                -1,
                -1,
                -1
            ],
            "type" : "VEC3"
        },
        {
            "bufferView" : 26,
            "componentType" : 5126,
            "count" : 384,
            "type" : "VEC3"
        },
        {
            "bufferView" : 27,
            "componentType" : 5126,
            "count" : 384,
            "type" : "VEC2"
        },
        {
            "bufferView" : 28,
            "componentType" : 5126,
            "count" : 918,
            "max" : [
                7.824974536895752,
                7.824974536895752,
                1
            ],
            "min" : [
                -1,
                -1,
                -7.824974536895752
            ],
            "type" : "VEC3"
        },
        {
            "bufferView" : 29,
            "componentType" : 5126,
            "count" : 918,
            "type" : "VEC3"
        },
        {
            "bufferView" : 30,
            "componentType" : 5126,
            "count" : 918,
            "type" : "VEC2"
        },
        {
            "bufferView" : 31,
            "componentType" : 5126,
            "count" : 918,
            "max" : [
                7.824974536895752,
                7.824974536895752,
                1
            ],
            "min" : [
                -1,
                -1,
                -7.824974536895752
            ],
            "type" : "VEC3"
        },
        {
            "bufferView" : 32,
            "componentType" : 5126,
            "count" : 918,
            "type" : "VEC3"
        },
        {
            "bufferView" : 33,
            "componentType" : 5126,
            "count" : 918,
            "type" : "VEC2"
        },
        {
            "bufferView" : 34,
            "componentType" : 5126,
            "count" : 918,
            "max" : [
                7.824974536895752,
                7.824974536895752,
                1
            ],
            "min" : [
                -1,
                -1,
                -7.824974536895752
            ],
            "type" : "VEC3"
        },
        {
            "bufferView" : 35,
            "componentType" : 5126,
            "count" : 918,
            "type" : "VEC3"
        },
        {
            "bufferView" : 36,
            "componentType" : 5126,
            "count" : 918,
            "type" : "VEC2"
        },
        {
            "bufferView" : 37,
            "componentType" : 5126,
            "count" : 918,
            "max" : [
                7.824974536895752,
                7.824974536895752,
                1
            ],
            "min" : [
                -1,
                -1,
                -7.824974536895752
            ],
            "type" : "VEC3"
        },
        {
            "bufferView" : 38,
            "componentType" : 5126,
            "count" : 918,
            "type" : "VEC3"
        },
        {
            "bufferView" : 39,
            "componentType" : 5126,
            "count" : 918,
            "type" : "VEC2"
        }
    ],
    "bufferViews" : [
        {
            "buffer" : 0,
            "byteLength" : 144000,
            "byteOffset" : 0
        },
        {
            "buffer" : 0,
            "byteLength" : 144000,
            "byteOffset" : 144000
        },
        {
            "buffer" : 0,
            "byteLength" : 96000,
            "byteOffset" : 288000
        },
        {
            "buffer" : 0,
            "byteLength" : 36000,
            "byteOffset" : 384000
        },
        {
            "buffer" : 0,
            "byteLength" : 720,
            "byteOffset" : 420000
        },
        {
            "buffer" : 0,
            "byteLength" : 720,
            "byteOffset" : 420720
        },
        {
            "buffer" : 0,
            "byteLength" : 480,
            "byteOffset" : 421440
        },
        {
            "buffer" : 0,
            "byteLength" : 120,
            "byteOffset" : 421920
        },
        {
            "buffer" : 0,
            "byteLength" : 4608,
            "byteOffset" : 422040
        },
        {
            "buffer" : 0,
            "byteLength" : 4608,
            "byteOffset" : 426648
        },
        {
            "buffer" : 0,
            "byteLength" : 3072,
            "byteOffset" : 431256
        },
        {
            "buffer" : 0,
            "byteLength" : 1128,
            "byteOffset" : 434328
        },
        {
            "buffer" : 0,
            "byteLength" : 11016,
            "byteOffset" : 435456
        },
        {
            "buffer" : 0,
            "byteLength" : 11016,
            "byteOffset" : 446472
        },
        {
            "buffer" : 0,
            "byteLength" : 7344,
            "byteOffset" : 457488
        },
        {
            "buffer" : 0,
            "byteLength" : 2712,
            "byteOffset" : 464832
        },
        {
            "buffer" : 0,
            "byteLength" : 11016,
            "byteOffset" : 467544
        },
        {
            "buffer" : 0,
            "byteLength" : 11016,
            "byteOffset" : 478560
        },
        {
            "buffer" : 0,
            "byteLength" : 7344,
            "byteOffset" : 489576
        },
        {
            "buffer" : 0,
            "byteLength" : 11016,
            "byteOffset" : 496920
        },
        {
            "buffer" : 0,
            "byteLength" : 11016,
            "byteOffset" : 507936
        },
        {
            "buffer" : 0,
            "byteLength" : 7344,
            "byteOffset" : 518952
        },
        {
            "buffer" : 0,
            "byteLength" : 11016,
            "byteOffset" : 526296
        },
        {
            "buffer" : 0,
            "byteLength" : 11016,
            "byteOffset" : 537312
        },
        {
            "buffer" : 0,
            "byteLength" : 7344,
            "byteOffset" : 548328
        },
        {
            "buffer" : 0,
            "byteLength" : 4608,
            "byteOffset" : 555672
        },
        {
            "buffer" : 0,
            "byteLength" : 4608,
            "byteOffset" : 560280
        },
        {
            "buffer" : 0,
            "byteLength" : 3072,
            "byteOffset" : 564888
        },
        {
            "buffer" : 0,
            "byteLength" : 11016,
            "byteOffset" : 567960
        },
        {
            "buffer" : 0,
            "byteLength" : 11016,
            "byteOffset" : 578976
        },
        {
            "buffer" : 0,
            "byteLength" : 7344,
            "byteOffset" : 589992
        },
        {
            "buffer" : 0,
            "byteLength" : 11016,
            "byteOffset" : 597336
        },
        {
            "buffer" : 0,
            "byteLength" : 11016,
            "byteOffset" : 608352
        },
        {
            "buffer" : 0,
            "byteLength" : 7344,
            "byteOffset" : 619368
        },
        {
            "buffer" : 0,
            "byteLength" : 11016,
            "byteOffset" : 626712
        },
        {
            "buffer" : 0,
            "byteLength" : 11016,
            "byteOffset" : 637728
        },
        {
            "buffer" : 0,
            "byteLength" : 7344,
            "byteOffset" : 648744
        },
        {
            "buffer" : 0,
            "byteLength" : 11016,
            "byteOffset" : 656088
        },
        {
            "buffer" : 0,
            "byteLength" : 11016,
            "byteOffset" : 667104
        },
        {
            "buffer" : 0,
            "byteLength" : 7344,
            "byteOffset" : 678120
        }
    ],
    "buffers" : [
        {
            "byteLength" : 685464,
            "uri" : "3d_viewer_icon.bin"
        }
    ]
}
